<?xml version="1.0" standalone="no"?>
<!DOCTYPE svg PUBLIC "-//W3C//DTD SVG 20010904//EN"
 "http://www.w3.org/TR/2001/REC-SVG-20010904/DTD/svg10.dtd">
<svg version="1.0" xmlns="http://www.w3.org/2000/svg"
 width="512.000000pt" height="512.000000pt" viewBox="0 0 512.000000 512.000000"
 preserveAspectRatio="xMidYMid meet">

<g transform="translate(0.000000,512.000000) scale(0.100000,-0.100000)"
fill="#000000" stroke="none">
<path d="M4445 4726 c-181 -122 -339 -231 -350 -242 -15 -14 -27 -53 -44 -143
l-24 -123 101 -101 101 -101 120 23 c90 17 124 28 139 44 22 24 451 673 460
695 5 14 -145 172 -163 171 -5 0 -158 -100 -340 -223z"/>
<path d="M2869 3060 c-585 -557 -1065 -1016 -1067 -1020 -4 -9 259 -282 268
-278 3 2 436 464 960 1028 524 564 976 1049 1004 1078 l51 52 -76 76 -76 76
-1064 -1012z"/>
<path d="M2179 3536 c-94 -33 -259 -187 -356 -332 -33 -50 -95 -161 -138 -245
-213 -420 -401 -629 -690 -765 -49 -23 -126 -52 -170 -64 -281 -76 -358 -113
-470 -225 -118 -117 -178 -260 -178 -415 2 -231 123 -456 411 -764 272 -290
487 -451 697 -523 157 -54 325 -34 456 55 186 125 276 247 345 470 56 179 102
261 209 367 106 106 200 163 349 212 56 18 119 41 141 50 114 48 258 171 304
261 28 54 51 145 51 199 0 30 -7 50 -24 69 -34 40 -78 37 -142 -9 -95 -68
-159 -92 -249 -92 -97 0 -148 22 -218 92 l-47 47 -34 -34 c-19 -19 -82 -87
-140 -150 -98 -105 -106 -117 -100 -146 12 -65 -12 -110 -109 -211 -51 -52
-109 -104 -129 -114 -41 -21 -92 -24 -135 -9 -37 14 -479 454 -504 502 -21 41
-24 92 -8 135 12 32 191 218 231 239 15 8 51 14 80 14 l53 0 150 142 c83 78
203 192 267 254 l117 112 -38 40 c-66 69 -86 123 -86 232 0 86 3 101 32 162
40 85 76 137 152 221 68 75 82 116 58 164 -30 56 -81 78 -138 59z"/>
<path d="M1528 1906 l-67 -72 207 -207 207 -207 68 68 c37 37 67 72 67 77 0
11 -401 416 -410 414 -3 0 -35 -33 -72 -73z"/>
</g>
</svg>
