<?xml version="1.0" standalone="no"?>
<!DOCTYPE svg PUBLIC "-//W3C//DTD SVG 20010904//EN"
 "http://www.w3.org/TR/2001/REC-SVG-20010904/DTD/svg10.dtd">
<svg version="1.0" xmlns="http://www.w3.org/2000/svg"
 width="512.000000pt" height="512.000000pt" viewBox="0 0 512.000000 512.000000"
 preserveAspectRatio="xMidYMid meet">

<g transform="translate(0.000000,512.000000) scale(0.100000,-0.100000)"
fill="#000000" stroke="none">
<path d="M575 5106 c-41 -18 -83 -69 -91 -111 l-6 -35 -176 0 c-155 0 -180 -2
-217 -20 -110 -53 -111 -212 -1 -264 27 -13 69 -16 215 -16 l181 0 0 -585 0
-585 150 0 150 0 0 585 0 585 183 0 c153 0 187 3 217 18 107 53 107 211 0 264
-29 15 -64 18 -216 18 l-181 0 -7 38 c-14 93 -114 146 -201 108z"/>
<path d="M4420 4617 c-45 -23 -80 -74 -80 -114 l0 -23 -177 0 c-154 0 -184 -3
-220 -20 -106 -48 -112 -198 -11 -260 30 -18 51 -20 221 -20 l187 0 0 -345 0
-345 150 0 150 0 0 345 0 345 180 0 c203 0 232 7 271 61 32 45 33 125 3 165
-49 66 -58 69 -264 72 l-188 3 -6 34 c-12 64 -85 125 -149 125 -13 0 -43 -10
-67 -23z"/>
<path d="M1374 3660 c-11 -4 -34 -24 -52 -44 l-32 -37 0 -480 0 -481 93 87
c127 118 249 203 402 279 185 92 355 146 533 168 l92 12 0 196 c0 219 -6 245
-69 287 l-34 23 -456 -1 c-251 0 -465 -4 -477 -9z"/>
<path d="M2779 3647 c-63 -42 -69 -68 -69 -287 l0 -196 93 -12 c338 -42 683
-208 939 -451 l88 -83 0 478 0 478 -22 33 c-44 64 -39 63 -541 63 l-454 0 -34
-23z"/>
<path d="M84 3176 c-17 -8 -42 -29 -55 -47 l-24 -34 -3 -845 c-2 -943 -6 -888
67 -937 34 -23 36 -23 397 -23 l363 0 0 148 c0 234 38 432 122 644 l39 98 0
505 0 505 -437 0 c-345 -1 -445 -4 -469 -14z"/>
<path d="M4130 2686 l0 -504 45 -115 c25 -64 45 -120 45 -127 0 -8 113 -10
404 -8 389 3 406 4 432 23 15 11 35 36 45 55 18 32 19 68 19 550 0 482 -1 518
-19 550 -10 19 -30 44 -45 55 -27 19 -43 20 -477 23 l-449 3 0 -505z"/>
<path d="M2375 2859 c-625 -85 -1121 -564 -1231 -1189 -19 -112 -20 -339 0
-460 75 -463 371 -862 791 -1065 110 -53 215 -89 343 -117 130 -29 413 -31
545 -5 601 120 1057 589 1153 1187 20 122 20 328 0 450 -44 271 -162 521 -348
732 -203 230 -490 392 -799 453 -100 20 -355 28 -454 14z m570 -809 c103 -50
112 -193 16 -257 -34 -23 -36 -23 -401 -23 -365 0 -367 0 -401 23 -96 64 -87
206 15 257 39 19 60 20 385 20 324 0 347 -1 386 -20z"/>
<path d="M4340 1162 l0 -467 -226 -225 c-124 -124 -232 -237 -240 -252 -44
-83 10 -197 101 -214 74 -13 89 -3 305 212 l205 204 190 -191 c192 -192 239
-229 295 -229 50 0 107 35 130 80 25 49 25 90 1 138 -11 20 -119 136 -240 257
l-221 220 0 467 0 468 -150 0 -150 0 0 -468z"/>
<path d="M487 983 c-4 -3 -7 -70 -7 -147 l0 -141 -221 -220 c-121 -121 -229
-237 -240 -257 -24 -48 -24 -89 1 -138 23 -45 80 -80 130 -80 56 0 103 37 295
229 l190 191 205 -204 c172 -172 211 -206 242 -211 98 -18 178 47 178 145 0
23 -6 53 -14 68 -8 15 -116 128 -240 252 l-226 225 0 147 0 148 -143 0 c-79 0
-147 -3 -150 -7z"/>
</g>
</svg>
