<?xml version="1.0" standalone="no"?>
<!DOCTYPE svg PUBLIC "-//W3C//DTD SVG 20010904//EN"
 "http://www.w3.org/TR/2001/REC-SVG-20010904/DTD/svg10.dtd">
<svg version="1.0" xmlns="http://www.w3.org/2000/svg"
 width="512.000000pt" height="512.000000pt" viewBox="0 0 512.000000 512.000000"
 preserveAspectRatio="xMidYMid meet">

<g transform="translate(0.000000,512.000000) scale(0.100000,-0.100000)"
fill="#000000" stroke="none">
<path d="M4366 5104 c-25 -24 -19 -55 16 -91 l32 -33 -56 -57 -57 -56 -36 31
c-41 36 -65 40 -88 14 -25 -27 -21 -52 15 -89 l32 -33 -32 -33 -32 -33 0 -115
0 -114 168 -168 167 -167 111 0 c109 0 110 0 139 30 16 17 34 30 40 30 6 0 24
-13 40 -30 35 -37 69 -39 91 -5 19 30 13 53 -26 90 l-30 29 57 58 57 57 38
-34 c44 -40 71 -44 92 -13 23 32 20 43 -19 86 l-34 39 34 33 35 34 0 106 0
105 -173 173 -172 172 -110 0 c-109 0 -109 0 -142 -31 l-32 -32 -36 32 c-40
34 -66 39 -89 15z"/>
<path d="M3146 3421 l-929 -929 34 -17 c87 -44 175 -132 217 -218 l17 -34 935
928 935 929 -135 135 c-74 74 -137 135 -140 135 -3 0 -423 -418 -934 -929z"/>
<path d="M1990 3447 c-36 -12 -89 -37 -117 -55 -98 -63 -237 -230 -339 -407
-101 -177 -175 -259 -300 -333 -98 -58 -216 -99 -353 -122 -163 -28 -250 -54
-370 -111 -125 -59 -209 -118 -282 -197 -255 -274 -294 -616 -114 -991 95
-197 215 -362 431 -592 235 -251 392 -372 644 -500 182 -91 289 -126 425 -135
300 -21 589 136 749 406 84 143 121 246 181 515 53 237 144 416 252 497 27 21
101 67 164 104 214 124 397 282 453 393 98 193 57 463 -114 747 l-53 86 -363
-364 c-361 -360 -364 -364 -364 -405 0 -60 -34 -161 -78 -229 -93 -144 -244
-224 -422 -224 -93 1 -144 12 -224 51 -173 84 -276 250 -276 443 0 264 189
471 456 501 l61 7 358 358 357 357 -55 36 c-232 154 -532 224 -707 164z m-758
-2215 c282 -281 318 -321 318 -349 0 -46 -30 -77 -74 -77 -35 0 -53 15 -357
320 -342 343 -342 342 -298 398 15 20 29 26 57 26 35 0 53 -17 354 -318z"/>
<path d="M1923 2356 c-92 -30 -167 -98 -210 -191 -36 -79 -39 -194 -6 -267 62
-136 173 -209 318 -210 137 0 254 74 312 197 37 80 40 204 6 277 -30 66 -105
143 -170 175 -66 32 -183 41 -250 19z"/>
</g>
</svg>
