<?xml version="1.0" standalone="no"?>
<!DOCTYPE svg PUBLIC "-//W3C//DTD SVG 20010904//EN"
 "http://www.w3.org/TR/2001/REC-SVG-20010904/DTD/svg10.dtd">
<svg version="1.0" xmlns="http://www.w3.org/2000/svg"
 width="512.000000pt" height="512.000000pt" viewBox="0 0 512.000000 512.000000"
 preserveAspectRatio="xMidYMid meet">

<g transform="translate(0.000000,512.000000) scale(0.100000,-0.100000)"
fill="#000000" stroke="none">
<path d="M220 4081 c-83 -26 -150 -82 -191 -161 l-24 -45 0 -1315 0 -1315 24
-45 c32 -61 76 -107 136 -138 l50 -27 2345 0 2345 0 50 27 c60 31 104 77 136
138 l24 45 0 1315 0 1315 -27 50 c-31 60 -77 104 -138 136 l-45 24 -2330 2
c-1282 1 -2341 -2 -2355 -6z m3210 -566 l0 -225 23 0 c12 0 33 -7 45 -16 20
-14 22 -23 22 -121 0 -119 -10 -143 -62 -143 l-28 0 0 -90 0 -90 -50 0 -50 0
0 90 0 90 -27 0 c-53 0 -63 22 -63 141 0 100 2 109 22 123 12 9 33 16 45 16
l23 0 0 225 0 225 50 0 50 0 0 -225z m570 140 c0 -84 0 -85 25 -85 14 0 34 -9
45 -20 17 -17 20 -33 20 -117 0 -86 -3 -99 -22 -120 -12 -13 -32 -23 -45 -23
l-23 0 0 -230 0 -230 -50 0 -50 0 0 230 0 230 -27 0 c-15 0 -37 10 -50 22 -21
20 -23 30 -23 118 0 109 8 128 60 139 l35 7 3 82 3 82 49 0 50 0 0 -85z m560
-70 l0 -155 28 0 c53 0 67 -29 67 -140 0 -111 -14 -140 -67 -140 l-28 0 0
-160 0 -160 -50 0 -50 0 0 160 c0 160 0 160 -23 160 -12 0 -33 7 -45 16 -20
14 -22 23 -22 124 0 101 2 110 22 124 12 9 33 16 45 16 23 0 23 0 23 155 l0
155 50 0 50 0 0 -155z m-3688 -84 l33 -29 3 -139 c6 -239 -6 -253 -225 -253
-78 0 -153 4 -167 10 -14 5 -35 24 -46 42 -17 29 -20 51 -20 170 0 146 6 174
41 207 21 20 34 21 186 21 l163 0 32 -29z m607 13 c40 -28 51 -73 51 -201 0
-145 -11 -187 -53 -214 -29 -18 -47 -19 -189 -17 -157 3 -158 3 -185 31 -28
27 -28 29 -31 173 -4 168 -1 187 35 220 25 23 31 24 187 24 133 0 166 -3 185
-16z m631 -12 c36 -36 44 -87 38 -235 -7 -179 -17 -187 -237 -187 l-151 0 -32
29 -33 29 -3 152 c-5 239 -5 240 226 240 l164 0 28 -28z m2810 -977 l0 -65
-2360 0 -2360 0 0 65 0 65 2360 0 2360 0 0 -65z m-4420 -463 c0 -328 0 -328
60 -341 l35 -7 3 -242 2 -242 -169 0 c-165 0 -171 1 -198 24 l-28 24 -3 541
-3 541 151 0 150 0 0 -298z m550 0 c0 -330 2 -342 61 -342 l29 0 0 -245 0
-245 -220 0 -220 0 0 245 0 245 25 0 c14 0 34 9 45 20 19 19 20 33 20 320 l0
300 130 0 130 0 0 -298z m640 -267 l0 -565 -225 0 -225 0 0 240 c0 184 3 242
13 244 6 3 24 7 38 10 45 10 49 35 49 346 l0 290 175 0 175 0 0 -565z m450
267 c0 -328 0 -328 60 -341 l35 -7 3 -242 2 -242 -225 0 -225 0 0 565 0 565
175 0 175 0 0 -298z m550 0 c0 -330 2 -342 61 -342 l29 0 0 -245 0 -245 -220
0 -220 0 0 245 0 245 25 0 c14 0 34 9 45 20 19 19 20 33 20 320 l0 300 130 0
130 0 0 -298z m640 -267 l0 -565 -225 0 -225 0 0 240 c0 184 3 242 13 244 6 3
24 7 38 10 45 10 49 35 49 346 l0 290 175 0 175 0 0 -565z m450 274 c0 -333 3
-348 73 -349 l27 0 0 -245 0 -245 -225 0 -225 0 0 565 0 565 175 0 175 0 0
-291z m550 -9 c0 -287 1 -301 20 -320 11 -11 31 -20 45 -20 l25 0 0 -245 0
-245 -220 0 -220 0 0 245 0 245 29 0 c59 0 61 12 61 342 l0 298 130 0 130 0 0
-300z m588 -241 l-3 -541 -28 -24 c-27 -23 -33 -24 -198 -24 l-169 0 0 240 c0
184 3 242 13 244 6 3 24 7 38 10 45 10 49 35 49 346 l0 290 150 0 151 0 -3
-541z"/>
<path d="M550 3305 l0 -125 130 0 130 0 0 125 0 125 -130 0 -130 0 0 -125z"/>
<path d="M1170 3305 l0 -125 130 0 130 0 0 125 0 125 -130 0 -130 0 0 -125z"/>
<path d="M1790 3305 l0 -126 128 3 127 3 3 123 3 122 -131 0 -130 0 0 -125z"/>
</g>
</svg>
